# xmcd
# 
# Track frame offsets:
#     150
#     47165
#     75707
#     104815
#     131850
#     176560
#     215677
#     263857
# 
# Disc length: 4326
# 
# Revision: 15
# Processed by: cddbd v1.5.2PL0 Copyright (c) Steve Scherf et al.
# Submitted via: BonkEnc v1.0.8
# 
DISCID=7a10e408
DTITLE=Orbital - In Sides [CD1]
DYEAR=1996
DGENRE=Electronica
TTITLE0=The Girl With The Sun In Her Head
TTITLE1=P.E.T.R.O.L.
TTITLE2=The Box - Part I
TTITLE3=The Box - Part II
TTITLE4=Dwr Budr
TTITLE5=Adnan's
TTITLE6=Out There Somewhere? - Part I
TTITLE7=Out There Somewhere? - Part II
EXTD=YEAR: 1996
EXTT0=
EXTT1=
EXTT2=
EXTT3=
EXTT4=
EXTT5=
EXTT6=
EXTT7=
PLAYORDER=
